<?xml version="1.0" encoding="UTF-8"?>
<svg id="_1" data-name="1" xmlns="http://www.w3.org/2000/svg" viewBox="0 0 221.39 176.28">
  <defs>
    <style>
      .cls-1 {
        fill: #2b2a29;
        fill-rule: evenodd;
        stroke-width: 0px;
      }
    </style>
  </defs>
  <path class="cls-1" d="m123.57,94.89c7.79-6.48,10.41-16.17,5.85-21.65-4.56-5.48-14.56-4.66-22.35,1.81-7.79,6.48-10.41,16.17-5.85,21.64,4.55,5.48,14.56,4.67,22.35-1.81h0Zm-4.48,27.15c-23.01,23.77-34.63,53.88-35,54.25,2.68-10.87,7.02-36.01,1.28-55.27-6.23-20.59-20.28-17.98-20.28-17.98,0,0,4.37-7.37,12.44-14.5,8.06-7.12,14.94-11.12,14.94-11.12,0,0-2.5,11.25,2.69,21,5.19,9.75,11.75,9.31,11.75,9.31,0,0,7.75.81,19-9.56,11.25-10.38,15.62-20.81,15.62-20.81,0,0,5.5,4.81,7.88,11.5,2.37,6.69,2.5,14.06,2.5,14.06,0,0-11.62-3.06-32.81,19.13h0Zm55.01-103.26c33.81,16.86,49.02,38.6,47.13,62.16-1.56,19.38-16.59,36.49-40.23,47.51-18.79,8.76-42.79,13.41-69.23,13.62,18.16-2.25,34.57-6.78,48.06-13.14,22.57-10.64,36.9-26.4,38.38-44.86,3.06-38.09-44.7-72.48-117.88-78.89-18.59-1.49-36.5-.19-53.91,2.86C47.77,1.39,73.53-1.47,100.95.73c27.47,2.21,51.6,7.32,73.15,18.04h0ZM12.64,102.58c.75,9.77,11.39,18.56,22.82,24.2,11.81,5.62,23.06,9.56,42.13,13.62-13.69-.38-37.63-5.37-53.7-13.37C6.71,118.41.87,110.29.08,100.03c-.96-12.47,6.25-23.26,23.38-32.19,10.91-5.68,23.26-8.18,37.17-9.35,12.26-.96,30.14,1.16,37.57,3.6-8.82-1.61-17.9-1.98-27.31-1.19-37.06,3.4-59.81,21.51-58.26,41.68h0Z"/>
</svg>